<svg width="13" height="12" viewBox="0 0 13 12" fill="none" xmlns="http://www.w3.org/2000/svg">
<g clip-path="url(#clip0_274_49)">
<rect width="11.5934" height="11.5934" transform="translate(0.649628 0.0426178)" fill="black"/>
<path d="M10.9295 8.9425C10.7614 9.33066 10.5626 9.68797 10.3321 10.0165C10.018 10.4643 9.76086 10.7743 9.56266 10.9464C9.25542 11.229 8.92624 11.3737 8.57373 11.3819C8.32067 11.3819 8.01549 11.3099 7.66024 11.1638C7.30383 11.0184 6.97629 10.9464 6.6768 10.9464C6.3627 10.9464 6.02583 11.0184 5.66551 11.1638C5.30464 11.3099 5.01393 11.386 4.79166 11.3936C4.45362 11.408 4.11669 11.2591 3.78037 10.9464C3.56571 10.7592 3.29722 10.4382 2.97558 9.98355C2.63048 9.498 2.34676 8.93496 2.12449 8.29304C1.88645 7.59969 1.76712 6.92829 1.76712 6.27829C1.76712 5.53371 1.92801 4.89152 2.25027 4.35337C2.50354 3.92111 2.84047 3.58013 3.26217 3.32981C3.68388 3.07949 4.13952 2.95193 4.63022 2.94377C4.89871 2.94377 5.2508 3.02682 5.68835 3.19004C6.12466 3.35381 6.40481 3.43686 6.52763 3.43686C6.61946 3.43686 6.93068 3.33975 7.45827 3.14615C7.95719 2.96661 8.37828 2.89226 8.72324 2.92155C9.65799 2.99699 10.3603 3.36547 10.8273 4.02933C9.99129 4.53586 9.57775 5.24533 9.58598 6.15546C9.59352 6.86437 9.8507 7.4543 10.3561 7.92271C10.5852 8.14011 10.841 8.30813 11.1256 8.42746C11.0639 8.60645 10.9987 8.77791 10.9295 8.9425ZM8.78565 0.50642C8.78565 1.06207 8.58265 1.58087 8.17802 2.06107C7.68973 2.63193 7.09912 2.96181 6.45864 2.90975C6.45048 2.84309 6.44575 2.77293 6.44575 2.69921C6.44575 2.16579 6.67796 1.59493 7.09034 1.12817C7.29622 0.891842 7.55806 0.695338 7.87558 0.538584C8.19242 0.384168 8.49212 0.298773 8.77399 0.284149C8.78222 0.35843 8.78565 0.432716 8.78565 0.506413V0.50642Z" fill="white"/>
</g>
<defs>
<clipPath id="clip0_274_49">
<rect width="11.5934" height="11.5934" fill="white" transform="translate(0.649628 0.0426178)"/>
</clipPath>
</defs>
</svg>
