<svg width="8" height="6" viewBox="0 0 8 6" fill="none" xmlns="http://www.w3.org/2000/svg">
<path d="M7.99996 1.32961C8.00025 1.43634 7.98141 1.5418 7.94483 1.63823C7.90824 1.73466 7.85484 1.81962 7.78855 1.88686L4.3603 5.33748C4.25807 5.44256 4.12983 5.5 3.99748 5.5C3.86514 5.5 3.7369 5.44256 3.63466 5.33748L0.20641 1.76541C0.089726 1.64414 0.0163476 1.46989 0.00241759 1.28098C-0.0115124 1.09207 0.0351472 0.903979 0.132131 0.758084C0.229116 0.612188 0.368481 0.520441 0.519567 0.503023C0.670654 0.485606 0.821085 0.543946 0.93777 0.66521L4.00034 3.85864L7.06291 0.772372C7.14678 0.685011 7.2489 0.629518 7.35721 0.612458C7.46551 0.595398 7.57546 0.617485 7.67403 0.676107C7.77261 0.734729 7.8557 0.827431 7.91346 0.943246C7.97122 1.05906 8.00124 1.19314 7.99996 1.32961Z" fill="#323232"/>
</svg>
