<svg width="16" height="16" viewBox="0 0 16 16" fill="none" xmlns="http://www.w3.org/2000/svg">
<g clipPath="url(#clip0_715_155)">
<path d="M7.56893 0V2.53897H8.43132V0H7.56885H7.56893ZM4.04746 0.763L3.3409 1.25771L4.79694 3.33699L5.50312 2.84227L4.04746 0.763ZM11.9526 0.763L10.497 2.84228L11.2033 3.337L12.6593 1.25771L11.9527 0.763H11.9526ZM7.99994 3.23365C5.89025 3.23365 4.18004 4.51476 4.18004 6.09532L6.35033 12.668H9.64993L11.82 6.09532C11.82 4.51479 10.1099 3.23365 8.00014 3.23365H7.99994ZM1.13962 3.99564L0.844971 4.80649L3.22962 5.67468L3.52537 4.86421L1.13957 3.99564H1.13962ZM14.8604 3.99564L12.4746 4.86428L12.7694 5.67484L15.1552 4.80651L14.8604 3.99564ZM3.41017 7.70241L0.958171 8.36009L1.18065 9.19251L3.63265 8.53577L3.41021 7.70241H3.41017ZM12.5899 7.70241L12.3676 8.53576L14.8196 9.19239L15.0419 8.35996L12.5899 7.70239V7.70241ZM6.30222 13.1471V14.2896H9.69805V13.1473H6.30224L6.30222 13.1471ZM6.30222 14.8575V16H9.69805V14.8577H6.30224L6.30222 14.8575Z" fill="#323232"/>
</g>
<defs>
<clipPath id="clip0_715_155">
<rect width="16" height="16" fill="white"/>
</clipPath>
</defs>
</svg>
