<svg width="51" height="13" viewBox="0 0 51 13" fill="none" xmlns="http://www.w3.org/2000/svg">
<path d="M0.758523 10V1.27273H2.60369V8.47869H6.34517V10H0.758523ZM7.53303 10V3.45455H9.34837V10H7.53303ZM8.44496 2.6108C8.17507 2.6108 7.94354 2.52131 7.75036 2.34233C7.56001 2.16051 7.46484 1.94318 7.46484 1.69034C7.46484 1.44034 7.56001 1.22585 7.75036 1.04688C7.94354 0.865057 8.17507 0.774147 8.44496 0.774147C8.71484 0.774147 8.94496 0.865057 9.1353 1.04688C9.32848 1.22585 9.42507 1.44034 9.42507 1.69034C9.42507 1.94318 9.32848 2.16051 9.1353 2.34233C8.94496 2.52131 8.71484 2.6108 8.44496 2.6108ZM12.6179 6.21591V10H10.8026V3.45455H12.5327V4.60938H12.6094C12.7543 4.22869 12.9972 3.92756 13.3381 3.70597C13.679 3.48153 14.0923 3.36932 14.5781 3.36932C15.0327 3.36932 15.429 3.46875 15.767 3.66761C16.1051 3.86648 16.3679 4.15057 16.5554 4.51989C16.7429 4.88636 16.8366 5.32386 16.8366 5.83239V10H15.0213V6.15625C15.0241 5.75568 14.9219 5.44318 14.7145 5.21875C14.5071 4.99148 14.2216 4.87784 13.858 4.87784C13.6136 4.87784 13.3977 4.9304 13.2102 5.03551C13.0256 5.14062 12.8807 5.29403 12.7756 5.49574C12.6733 5.6946 12.6207 5.93466 12.6179 6.21591ZM21.2163 12.5909C20.6282 12.5909 20.1239 12.5099 19.7035 12.348C19.2859 12.1889 18.9535 11.9716 18.7063 11.696C18.4592 11.4205 18.2987 11.1108 18.2248 10.767L19.9038 10.5412C19.9549 10.6719 20.0359 10.794 20.1467 10.9077C20.2575 11.0213 20.4038 11.1122 20.5856 11.1804C20.7702 11.2514 20.9947 11.2869 21.2589 11.2869C21.6538 11.2869 21.979 11.1903 22.2347 10.9972C22.4933 10.8068 22.6225 10.4872 22.6225 10.0384V8.84091H22.5458C22.4663 9.02273 22.3469 9.1946 22.1879 9.35653C22.0288 9.51847 21.8242 9.65057 21.5742 9.75284C21.3242 9.85511 21.0259 9.90625 20.6793 9.90625C20.1879 9.90625 19.7404 9.79261 19.337 9.56534C18.9364 9.33523 18.6168 8.98437 18.3782 8.51278C18.1424 8.03835 18.0245 7.43892 18.0245 6.71449C18.0245 5.97301 18.1452 5.35369 18.3867 4.85653C18.6282 4.35937 18.9492 3.98722 19.3498 3.74006C19.7532 3.4929 20.195 3.36932 20.6751 3.36932C21.0415 3.36932 21.3484 3.43182 21.5955 3.55682C21.8427 3.67898 22.0415 3.83239 22.1921 4.01705C22.3455 4.19886 22.4634 4.37784 22.5458 4.55398H22.614V3.45455H24.4165V10.0639C24.4165 10.6207 24.2802 11.0866 24.0075 11.4616C23.7347 11.8366 23.3569 12.1179 22.8739 12.3054C22.3938 12.4957 21.8413 12.5909 21.2163 12.5909ZM21.2546 8.54261C21.5472 8.54261 21.7944 8.47017 21.9961 8.32528C22.2006 8.17756 22.3569 7.96733 22.4648 7.6946C22.5756 7.41903 22.631 7.08949 22.631 6.70597C22.631 6.32244 22.5771 5.99006 22.4691 5.70881C22.3612 5.42472 22.2049 5.20455 22.0004 5.0483C21.7958 4.89205 21.5472 4.81392 21.2546 4.81392C20.9563 4.81392 20.7049 4.89489 20.5004 5.05682C20.2958 5.21591 20.141 5.4375 20.0359 5.72159C19.9308 6.00568 19.8782 6.33381 19.8782 6.70597C19.8782 7.08381 19.9308 7.41051 20.0359 7.68608C20.1438 7.95881 20.2987 8.17045 20.5004 8.32102C20.7049 8.46875 20.9563 8.54261 21.2546 8.54261ZM25.8612 10V3.45455H27.6211V4.59659H27.6893C27.8086 4.19034 28.0089 3.88352 28.2901 3.67614C28.5714 3.46591 28.8952 3.3608 29.2617 3.3608C29.3526 3.3608 29.4506 3.36648 29.5558 3.37784C29.6609 3.3892 29.7532 3.40483 29.8327 3.42472V5.03551C29.7475 5.00994 29.6296 4.98722 29.479 4.96733C29.3285 4.94744 29.1907 4.9375 29.0657 4.9375C28.7987 4.9375 28.56 4.99574 28.3498 5.11222C28.1424 5.22585 27.9776 5.38494 27.8555 5.58949C27.7362 5.79403 27.6765 6.02983 27.6765 6.29688V10H25.8612ZM33.424 10.1278C32.7621 10.1278 32.1896 9.98722 31.7067 9.70597C31.2266 9.42187 30.8558 9.02699 30.5945 8.52131C30.3331 8.01278 30.2024 7.4233 30.2024 6.75284C30.2024 6.0767 30.3331 5.4858 30.5945 4.98011C30.8558 4.47159 31.2266 4.0767 31.7067 3.79545C32.1896 3.51136 32.7621 3.36932 33.424 3.36932C34.0859 3.36932 34.657 3.51136 35.1371 3.79545C35.62 4.0767 35.9922 4.47159 36.2536 4.98011C36.5149 5.4858 36.6456 6.0767 36.6456 6.75284C36.6456 7.4233 36.5149 8.01278 36.2536 8.52131C35.9922 9.02699 35.62 9.42187 35.1371 9.70597C34.657 9.98722 34.0859 10.1278 33.424 10.1278ZM33.4325 8.72159C33.7337 8.72159 33.9851 8.63636 34.1868 8.46591C34.3885 8.29261 34.5405 8.05682 34.6428 7.75852C34.7479 7.46023 34.8004 7.12074 34.8004 6.74006C34.8004 6.35938 34.7479 6.01989 34.6428 5.72159C34.5405 5.4233 34.3885 5.1875 34.1868 5.0142C33.9851 4.84091 33.7337 4.75426 33.4325 4.75426C33.1286 4.75426 32.8729 4.84091 32.6655 5.0142C32.4609 5.1875 32.3061 5.4233 32.201 5.72159C32.0987 6.01989 32.0476 6.35938 32.0476 6.74006C32.0476 7.12074 32.0987 7.46023 32.201 7.75852C32.3061 8.05682 32.4609 8.29261 32.6655 8.46591C32.8729 8.63636 33.1286 8.72159 33.4325 8.72159ZM39.4709 8.11648L39.4751 5.93892H39.7393L41.8359 3.45455H43.9197L41.103 6.74432H40.6726L39.4709 8.11648ZM37.826 10V1.27273H39.6413V10H37.826ZM41.9169 10L39.9908 7.14915L41.201 5.86648L44.0433 10H41.9169ZM50.2564 5.32102L48.5945 5.4233C48.5661 5.28125 48.505 5.15341 48.4112 5.03977C48.3175 4.9233 48.1939 4.83097 48.0405 4.76278C47.8899 4.69176 47.7095 4.65625 47.4993 4.65625C47.218 4.65625 46.9808 4.71591 46.7876 4.83523C46.5945 4.9517 46.4979 5.10795 46.4979 5.30398C46.4979 5.46023 46.5604 5.59233 46.6854 5.70028C46.8104 5.80824 47.0249 5.89489 47.3288 5.96023L48.5135 6.19886C49.1499 6.32955 49.6243 6.53977 49.9368 6.82955C50.2493 7.11932 50.4055 7.5 50.4055 7.97159C50.4055 8.40057 50.2791 8.77699 50.0263 9.10085C49.7763 9.42472 49.4325 9.67756 48.995 9.85938C48.5604 10.0384 48.0589 10.1278 47.4908 10.1278C46.6243 10.1278 45.9339 9.94744 45.4197 9.58665C44.9084 9.22301 44.6087 8.72869 44.5206 8.10369L46.3061 8.00994C46.3601 8.27415 46.4908 8.47585 46.6982 8.61506C46.9055 8.75142 47.1712 8.8196 47.495 8.8196C47.8132 8.8196 48.0689 8.75852 48.2621 8.63636C48.4581 8.51136 48.5575 8.35085 48.5604 8.15483C48.5575 7.99006 48.4879 7.85511 48.3516 7.75C48.2152 7.64205 48.005 7.55966 47.7209 7.50284L46.5874 7.27699C45.9482 7.14915 45.4723 6.92756 45.1598 6.61222C44.8501 6.29687 44.6953 5.89489 44.6953 5.40625C44.6953 4.9858 44.8089 4.62358 45.0362 4.3196C45.2663 4.01562 45.5888 3.78125 46.0036 3.61648C46.4212 3.4517 46.9098 3.36932 47.4695 3.36932C48.2962 3.36932 48.9467 3.54403 49.4212 3.89347C49.8984 4.2429 50.1768 4.71875 50.2564 5.32102Z" fill="#5732E9"/>
</svg>
