<svg width="12" height="12" viewBox="0 0 12 12" fill="none" xmlns="http://www.w3.org/2000/svg">
<path fill-rule="evenodd" clip-rule="evenodd" d="M11.5378 5.9656C11.5378 5.57169 11.5025 5.19293 11.4368 4.82932H6.20483V6.97816H9.19453C9.06576 7.67256 8.67437 8.26091 8.08602 8.65482V10.0487H9.88136C10.9318 9.08156 11.5378 7.65741 11.5378 5.9656Z" fill="#4285F4"/>
<path fill-rule="evenodd" clip-rule="evenodd" d="M6.20486 11.3944C7.70476 11.3944 8.96225 10.897 9.88138 10.0486L8.08605 8.65471C7.5886 8.98802 6.95228 9.18498 6.20486 9.18498C4.75798 9.18498 3.53332 8.20777 3.09648 6.89473H1.24054V8.33403C2.15462 10.1496 4.03328 11.3944 6.20486 11.3944Z" fill="#34A853"/>
<path fill-rule="evenodd" clip-rule="evenodd" d="M3.09653 6.89486C2.98542 6.56155 2.9223 6.20551 2.9223 5.83937C2.9223 5.47324 2.98542 5.1172 3.09653 4.78389V3.34459H1.24059C0.864351 4.09454 0.649719 4.94297 0.649719 5.83937C0.649719 6.73578 0.864351 7.58421 1.24059 8.33416L3.09653 6.89486Z" fill="#FBBC05"/>
<path fill-rule="evenodd" clip-rule="evenodd" d="M6.20486 2.4936C7.02046 2.4936 7.75274 2.77388 8.32845 3.32435L9.92178 1.73102C8.95973 0.834618 7.70223 0.284149 6.20486 0.284149C4.03328 0.284149 2.15462 1.52902 1.24054 3.34455L3.09648 4.78385C3.53332 3.47081 4.75798 2.4936 6.20486 2.4936Z" fill="#EA4335"/>
</svg>
