<svg width="" height="" viewBox="0 0 800 400" xmlns="http://www.w3.org/2000/svg">
  <style>
    @keyframes glow {
      0% { fill:rgb(55, 239, 126); opacity: 1; }
      50% { fill:rgb(87, 50, 233); opacity: 0.6; }
      100% { fill:rgb(146, 182, 244); opacity: 1; }
    }

    .glowing-node {
      animation: glow 2s infinite alternate;
    }

    path {
      stroke-dasharray: 20 10;
      animation: dash 2s linear infinite;
    }

    @keyframes dash {
      to {
        stroke-dashoffset: 30;
      }
    }

    circle {
      animation: move 2s infinite alternate;
    }

    @keyframes move {
      0% { transform: translateY(0); }
      50% { transform: translateY(10px); }
      100% { transform: translateY(0); }
    }

    svg {
      background-color: #1a1a1a;
    }

    .glowing-node {
      filter: url(#glow);
    }

    .glowing-node:hover {
      animation: none;
    }

    .glowing-node:active {
      animation: none;
    }

    .glowing-node:visited {
      animation: none;
    }
  </style>
  
  <!-- Background Lines -->
  <path d="M50 300 Q200 50, 400 200 T750 150" stroke="#7d5eff" stroke-width="1" fill="transparent"/>
  <path d="M100 350 Q250 100, 500 250 T780 120" stroke="#4b34d2" stroke-width="1" fill="transparent"/>
  <path d="M30 250 Q180 80, 380 180 T730 130" stroke="#2d1c95" stroke-width="1" fill="transparent"/>
  <path d="M60 280 Q220 40, 420 190 T770 140" stroke="#551fff" stroke-width="1" fill="transparent"/>
  <path d="M90 320 Q270 90, 480 230 T760 110" stroke="#3a12c2" stroke-width="1" fill="transparent"/>

  <!-- Glowing Nodes -->
  <circle cx="50" cy="300" r="10" fill="#ffffff" class="glowing-node"/>
  <circle cx="200" cy="50" r="12" fill="#ffffff" class="glowing-node"/>
  <circle cx="400" cy="200" r="14" fill="#ffffff" class="glowing-node"/>
  <circle cx="750" cy="150" r="10" fill="#ffffff" class="glowing-node"/>
  <circle cx="100" cy="350" r="10" fill="#ffffff" class="glowing-node"/>
  <circle cx="250" cy="100" r="12" fill="#ffffff" class="glowing-node"/>
  <circle cx="500" cy="250" r="14" fill="#ffffff" class="glowing-node"/>
  <circle cx="780" cy="120" r="10" fill="#ffffff" class="glowing-node"/>
  <circle cx="60" cy="280" r="11" fill="#ffffff" class="glowing-node"/>
  <circle cx="220" cy="40" r="13" fill="#ffffff" class="glowing-node"/>
  <circle cx="420" cy="190" r="15" fill="#ffffff" class="glowing-node"/>
  <circle cx="770" cy="140" r="11" fill="#ffffff" class="glowing-node"/>
</svg>
