<svg width="28" height="28" viewBox="0 0 28 28" fill="none" xmlns="http://www.w3.org/2000/svg">
<path d="M18.2119 14.7152C17.9211 16.0999 16.3741 17.0945 13.2801 19.0835C9.91495 21.247 8.23238 22.3287 6.86951 21.9119C6.40791 21.7707 5.98278 21.5226 5.6258 21.1858C4.57178 20.1918 4.57178 18.1278 4.57178 14C4.57178 9.87218 4.57178 7.80827 5.6258 6.81411C5.98278 6.4774 6.40791 6.22922 6.86951 6.08808C8.23239 5.67135 9.91495 6.75303 13.2801 8.91641C16.3741 10.9055 17.9211 11.9001 18.2119 13.2848C18.3107 13.756 18.3107 14.244 18.2119 14.7152Z" fill="#323232"/>
<path d="M22.8574 6V22V6Z" fill="#323232"/>
<path d="M22.8574 6V22" stroke="#323232" stroke-width="1.71429" stroke-linecap="round"/>
</svg>
