<svg width="28" height="29" viewBox="0 0 28 29" fill="none" xmlns="http://www.w3.org/2000/svg">
<g filter="url(#filter0_d_498_215)">
<path d="M22.8593 11.5716C22.4048 13.2727 20.2572 14.4748 15.9616 16.879C11.8091 19.2031 9.73296 20.3653 8.05978 19.8981C7.36802 19.705 6.73776 19.3383 6.22945 18.833C5 17.6109 5 15.2406 5 10.5C5 5.75937 5 3.38906 6.22945 2.167C6.73776 1.66177 7.36802 1.29498 8.05978 1.10187C9.73296 0.634758 11.8091 1.79682 15.9616 4.12097C20.2572 6.52515 22.4048 7.72726 22.8593 9.42839C23.0469 10.1306 23.0469 10.8693 22.8593 11.5716Z" fill="white"/>
<path d="M22.8593 11.5716C22.4048 13.2727 20.2572 14.4748 15.9616 16.879C11.8091 19.2031 9.73296 20.3653 8.05978 19.8981C7.36802 19.705 6.73776 19.3383 6.22945 18.833C5 17.6109 5 15.2406 5 10.5C5 5.75937 5 3.38906 6.22945 2.167C6.73776 1.66177 7.36802 1.29498 8.05978 1.10187C9.73296 0.634758 11.8091 1.79682 15.9616 4.12097C20.2572 6.52515 22.4048 7.72726 22.8593 9.42839C23.0469 10.1306 23.0469 10.8693 22.8593 11.5716Z" stroke="white" stroke-width="1.875" stroke-linejoin="round"/>
</g>
<defs>
<filter id="filter0_d_498_215" x="0.0625" y="0.0625" width="27.875" height="28.875" filterUnits="userSpaceOnUse" color-interpolation-filters="sRGB">
<feFlood flood-opacity="0" result="BackgroundImageFix"/>
<feColorMatrix in="SourceAlpha" type="matrix" values="0 0 0 0 0 0 0 0 0 0 0 0 0 0 0 0 0 0 127 0" result="hardAlpha"/>
<feOffset dy="4"/>
<feGaussianBlur stdDeviation="2"/>
<feComposite in2="hardAlpha" operator="out"/>
<feColorMatrix type="matrix" values="0 0 0 0 0 0 0 0 0 0 0 0 0 0 0 0 0 0 0.25 0"/>
<feBlend mode="normal" in2="BackgroundImageFix" result="effect1_dropShadow_498_215"/>
<feBlend mode="normal" in="SourceGraphic" in2="effect1_dropShadow_498_215" result="shape"/>
</filter>
</defs>
</svg>
