<svg width="28" height="28" viewBox="0 0 28 28" fill="none" xmlns="http://www.w3.org/2000/svg">
<path d="M9.78855 14.7152C10.0793 16.0999 11.6263 17.0945 14.7203 19.0835C18.0854 21.247 19.7681 22.3287 21.1309 21.9119C21.5925 21.7707 22.0177 21.5226 22.3746 21.1858C23.4286 20.1918 23.4286 18.1278 23.4286 14C23.4286 9.87218 23.4286 7.80827 22.3746 6.81411C22.0177 6.4774 21.5925 6.22922 21.1309 6.08808C19.7681 5.67135 18.0854 6.75303 14.7203 8.91641C11.6263 10.9055 10.0793 11.9001 9.78855 13.2848C9.68962 13.756 9.68962 14.244 9.78855 14.7152Z" fill="#323232" stroke="#323232" stroke-width="1.71429" stroke-linejoin="round"/>
<path d="M5.14258 4.85718V23.1429V4.85718Z" fill="#323232"/>
<path d="M5.14258 4.85718V23.1429" stroke="#323232" stroke-width="1.71429" stroke-linecap="round"/>
</svg>
