<svg width="16" height="16" viewBox="0 0 16 16" fill="none" xmlns="http://www.w3.org/2000/svg">
<path d="M12.0001 14.6668C12.3537 14.6668 12.6928 14.5264 12.9429 14.2763C13.1929 14.0263 13.3334 13.6871 13.3334 13.3335V5.3335L9.33341 1.3335H4.00008C3.64646 1.3335 3.30732 1.47397 3.05727 1.72402C2.80722 1.97407 2.66675 2.31321 2.66675 2.66683V13.3335C2.66675 13.6871 2.80722 14.0263 3.05727 14.2763C3.30732 14.5264 3.64646 14.6668 4.00008 14.6668H12.0001ZM8.66675 2.66683L12.0001 6.00016H8.66675V2.66683ZM4.66675 5.3335H6.66675V6.66683H4.66675V5.3335ZM4.66675 8.00016H11.3334V9.3335H4.66675V8.00016ZM4.66675 10.6668H11.3334V12.0002H4.66675V10.6668Z" fill="#323232"/>
</svg>
