<svg width="16" height="16" viewBox="0 0 16 16" fill="none" xmlns="http://www.w3.org/2000/svg">
<path d="M0.666504 14.6667C0.666504 13.2522 1.22841 11.8957 2.2286 10.8955C3.2288 9.89528 4.58535 9.33337 5.99984 9.33337C7.41433 9.33337 8.77088 9.89528 9.77107 10.8955C10.7713 11.8957 11.3332 13.2522 11.3332 14.6667H0.666504ZM5.99984 8.66671C3.78984 8.66671 1.99984 6.87671 1.99984 4.66671C1.99984 2.45671 3.78984 0.666705 5.99984 0.666705C8.20984 0.666705 9.99984 2.45671 9.99984 4.66671C9.99984 6.87671 8.20984 8.66671 5.99984 8.66671ZM12.1638 2.12337C12.4962 2.93009 12.667 3.7942 12.6665 4.66671C12.6671 5.53943 12.4963 6.40378 12.1638 7.2107L11.0458 6.39737C11.2365 5.8403 11.3336 5.2555 11.3332 4.66671C11.3338 4.07795 11.2369 3.49315 11.0465 2.93604L12.1638 2.12337ZM14.3652 0.522705C15.004 1.81057 15.3354 3.22909 15.3332 4.66671C15.3332 6.15537 14.9845 7.56271 14.3652 8.81137L13.2685 8.01337C13.7511 6.96371 14.0006 5.82198 13.9998 4.66671C14.0006 3.51143 13.7511 2.3697 13.2685 1.32004L14.3652 0.522705Z" fill="#323232"/>
</svg>
