<svg width="16" height="16" viewBox="0 0 16 16" fill="none" xmlns="http://www.w3.org/2000/svg">
<path d="M4.91667 3.83333C4.91667 3.01558 5.24152 2.23132 5.81975 1.65309C6.39799 1.07485 7.18225 0.75 8 0.75C8.81775 0.75 9.60201 1.07485 10.1802 1.65309C10.7585 2.23132 11.0833 3.01558 11.0833 3.83333C11.0833 4.65108 10.7585 5.43534 10.1802 6.01358C9.60201 6.59182 8.81775 6.91667 8 6.91667C7.18225 6.91667 6.39799 6.59182 5.81975 6.01358C5.24152 5.43534 4.91667 4.65108 4.91667 3.83333ZM1.89717 10.2305C2.63168 9.49598 3.6279 9.08333 4.66667 9.08333H11.3333C12.3721 9.08333 13.3683 9.49598 14.1028 10.2305C14.8374 10.965 15.25 11.9612 15.25 13C15.25 13.5967 15.0129 14.169 14.591 14.591C14.169 15.0129 13.5967 15.25 13 15.25H3C2.40326 15.25 1.83097 15.0129 1.40901 14.591C0.987053 14.169 0.75 13.5967 0.75 13C0.75 11.9612 1.16265 10.965 1.89717 10.2305Z" fill="#5732E9" stroke="#5732E9" stroke-width="0.5"/>
</svg>
